<mxfile host="Electron" modified="2023-07-10T07:19:05.301Z" agent="Mozilla/5.0 (Windows NT 10.0; Win64; x64) AppleWebKit/537.36 (KHTML, like Gecko) draw.io/21.6.1 Chrome/112.0.5615.204 Electron/24.6.1 Safari/537.36" etag="POFsJDIDgwhyKkQw9kby" version="21.6.1" type="device">
  <diagram name="Page-1" id="YUihQqoW8NSskB99rZK4">
    <mxGraphModel dx="1418" dy="828" grid="1" gridSize="10" guides="1" tooltips="1" connect="1" arrows="1" fold="1" page="1" pageScale="1" pageWidth="827" pageHeight="1169" math="0" shadow="0">
      <root>
        <mxCell id="0" />
        <mxCell id="1" parent="0" />
        <mxCell id="2mkjz8pBqvpZD9lPwnL0-1" value="" style="ellipse;html=1;shape=startState;fillColor=#000000;strokeColor=#ff0000;" parent="1" vertex="1">
          <mxGeometry x="384" y="10" width="30" height="30" as="geometry" />
        </mxCell>
        <mxCell id="2mkjz8pBqvpZD9lPwnL0-2" value="" style="edgeStyle=orthogonalEdgeStyle;html=1;verticalAlign=bottom;endArrow=open;endSize=8;strokeColor=#ff0000;rounded=0;" parent="1" source="2mkjz8pBqvpZD9lPwnL0-1" edge="1">
          <mxGeometry relative="1" as="geometry">
            <mxPoint x="399" y="100" as="targetPoint" />
          </mxGeometry>
        </mxCell>
        <mxCell id="2mkjz8pBqvpZD9lPwnL0-10" style="edgeStyle=orthogonalEdgeStyle;rounded=0;orthogonalLoop=1;jettySize=auto;html=1;exitX=0.5;exitY=1;exitDx=0;exitDy=0;" parent="1" source="2mkjz8pBqvpZD9lPwnL0-6" edge="1">
          <mxGeometry relative="1" as="geometry">
            <mxPoint x="399" y="210" as="targetPoint" />
          </mxGeometry>
        </mxCell>
        <mxCell id="2mkjz8pBqvpZD9lPwnL0-6" value="saisir kilometres" style="html=1;whiteSpace=wrap;" parent="1" vertex="1">
          <mxGeometry x="280" y="100" width="240" height="50" as="geometry" />
        </mxCell>
        <mxCell id="2mkjz8pBqvpZD9lPwnL0-41" style="edgeStyle=orthogonalEdgeStyle;rounded=0;orthogonalLoop=1;jettySize=auto;html=1;exitX=1;exitY=0.5;exitDx=0;exitDy=0;entryX=0;entryY=0.5;entryDx=0;entryDy=0;" parent="1" source="2mkjz8pBqvpZD9lPwnL0-11" target="2mkjz8pBqvpZD9lPwnL0-15" edge="1">
          <mxGeometry relative="1" as="geometry" />
        </mxCell>
        <mxCell id="2mkjz8pBqvpZD9lPwnL0-11" value="si valeur = Q&lt;br&gt;le programme&lt;br&gt;se ferme" style="rhombus;whiteSpace=wrap;html=1;fontColor=#000000;fillColor=#ffffc0;strokeColor=#ff0000;" parent="1" vertex="1">
          <mxGeometry x="324" y="210" width="150" height="110" as="geometry" />
        </mxCell>
        <mxCell id="2mkjz8pBqvpZD9lPwnL0-13" value="yes" style="edgeStyle=orthogonalEdgeStyle;html=1;align=left;verticalAlign=top;endArrow=open;endSize=8;strokeColor=#ff0000;rounded=0;" parent="1" source="2mkjz8pBqvpZD9lPwnL0-11" edge="1">
          <mxGeometry x="-1" relative="1" as="geometry">
            <mxPoint x="399" y="380" as="targetPoint" />
          </mxGeometry>
        </mxCell>
        <mxCell id="2mkjz8pBqvpZD9lPwnL0-15" value="" style="ellipse;html=1;shape=endState;fillColor=#000000;strokeColor=#ff0000;" parent="1" vertex="1">
          <mxGeometry x="540" y="250" width="30" height="30" as="geometry" />
        </mxCell>
        <mxCell id="2mkjz8pBqvpZD9lPwnL0-16" value="fin programme" style="text;html=1;align=center;verticalAlign=middle;resizable=0;points=[];autosize=1;strokeColor=none;fillColor=none;" parent="1" vertex="1">
          <mxGeometry x="570" y="260" width="100" height="30" as="geometry" />
        </mxCell>
        <mxCell id="2mkjz8pBqvpZD9lPwnL0-25" style="edgeStyle=orthogonalEdgeStyle;rounded=0;orthogonalLoop=1;jettySize=auto;html=1;exitX=0.5;exitY=1;exitDx=0;exitDy=0;" parent="1" source="2mkjz8pBqvpZD9lPwnL0-22" edge="1">
          <mxGeometry relative="1" as="geometry">
            <mxPoint x="399" y="570" as="targetPoint" />
          </mxGeometry>
        </mxCell>
        <mxCell id="2mkjz8pBqvpZD9lPwnL0-22" value="si valeur &amp;gt;0.01&lt;br&gt;&amp;amp;&lt;br&gt;&amp;lt;1 milion" style="rhombus;whiteSpace=wrap;html=1;fontColor=#000000;fillColor=#ffffc0;strokeColor=#ff0000;" parent="1" vertex="1">
          <mxGeometry x="319" y="380" width="160" height="120" as="geometry" />
        </mxCell>
        <mxCell id="2mkjz8pBqvpZD9lPwnL0-23" value="no" style="edgeStyle=orthogonalEdgeStyle;html=1;align=left;verticalAlign=bottom;endArrow=open;endSize=8;strokeColor=#ff0000;rounded=0;exitX=1;exitY=0.5;exitDx=0;exitDy=0;" parent="1" source="2mkjz8pBqvpZD9lPwnL0-22" edge="1">
          <mxGeometry x="-1" relative="1" as="geometry">
            <mxPoint x="590" y="440" as="targetPoint" />
            <mxPoint x="260" y="450" as="sourcePoint" />
          </mxGeometry>
        </mxCell>
        <mxCell id="2mkjz8pBqvpZD9lPwnL0-26" value="yes" style="text;html=1;align=center;verticalAlign=middle;resizable=0;points=[];autosize=1;strokeColor=none;fillColor=none;" parent="1" vertex="1">
          <mxGeometry x="390" y="498" width="40" height="30" as="geometry" />
        </mxCell>
        <mxCell id="2mkjz8pBqvpZD9lPwnL0-34" style="edgeStyle=orthogonalEdgeStyle;rounded=0;orthogonalLoop=1;jettySize=auto;html=1;exitX=0.5;exitY=0;exitDx=0;exitDy=0;entryX=1;entryY=0.5;entryDx=0;entryDy=0;" parent="1" source="2mkjz8pBqvpZD9lPwnL0-29" target="2mkjz8pBqvpZD9lPwnL0-6" edge="1">
          <mxGeometry relative="1" as="geometry" />
        </mxCell>
        <mxCell id="2mkjz8pBqvpZD9lPwnL0-29" value="saisir nouvelle valeur&lt;br&gt;" style="html=1;whiteSpace=wrap;" parent="1" vertex="1">
          <mxGeometry x="570" y="415" width="230" height="50" as="geometry" />
        </mxCell>
        <mxCell id="2mkjz8pBqvpZD9lPwnL0-32" style="edgeStyle=orthogonalEdgeStyle;rounded=0;orthogonalLoop=1;jettySize=auto;html=1;exitX=0.5;exitY=1;exitDx=0;exitDy=0;" parent="1" source="2mkjz8pBqvpZD9lPwnL0-30" edge="1">
          <mxGeometry relative="1" as="geometry">
            <mxPoint x="399" y="710" as="targetPoint" />
          </mxGeometry>
        </mxCell>
        <mxCell id="2mkjz8pBqvpZD9lPwnL0-30" value="conversion miles" style="html=1;whiteSpace=wrap;" parent="1" vertex="1">
          <mxGeometry x="280" y="570" width="240" height="50" as="geometry" />
        </mxCell>
        <mxCell id="2mkjz8pBqvpZD9lPwnL0-36" style="edgeStyle=orthogonalEdgeStyle;rounded=0;orthogonalLoop=1;jettySize=auto;html=1;exitX=0.5;exitY=1;exitDx=0;exitDy=0;" parent="1" source="2mkjz8pBqvpZD9lPwnL0-33" edge="1">
          <mxGeometry relative="1" as="geometry">
            <mxPoint x="400" y="830" as="targetPoint" />
          </mxGeometry>
        </mxCell>
        <mxCell id="2mkjz8pBqvpZD9lPwnL0-33" value="affichage resultat" style="html=1;whiteSpace=wrap;" parent="1" vertex="1">
          <mxGeometry x="280" y="710" width="240" height="50" as="geometry" />
        </mxCell>
        <mxCell id="2mkjz8pBqvpZD9lPwnL0-35" value="" style="ellipse;html=1;shape=endState;fillColor=#000000;strokeColor=#ff0000;" parent="1" vertex="1">
          <mxGeometry x="385" y="830" width="30" height="30" as="geometry" />
        </mxCell>
        <mxCell id="2mkjz8pBqvpZD9lPwnL0-39" value="fin programme" style="text;html=1;align=center;verticalAlign=middle;resizable=0;points=[];autosize=1;strokeColor=none;fillColor=none;" parent="1" vertex="1">
          <mxGeometry x="414" y="830" width="100" height="30" as="geometry" />
        </mxCell>
        <mxCell id="2mkjz8pBqvpZD9lPwnL0-40" value="debut programme" style="text;html=1;align=center;verticalAlign=middle;resizable=0;points=[];autosize=1;strokeColor=none;fillColor=none;" parent="1" vertex="1">
          <mxGeometry x="414" y="10" width="120" height="30" as="geometry" />
        </mxCell>
        <mxCell id="2mkjz8pBqvpZD9lPwnL0-42" value="no" style="text;html=1;align=center;verticalAlign=middle;resizable=0;points=[];autosize=1;strokeColor=none;fillColor=none;" parent="1" vertex="1">
          <mxGeometry x="460" y="228" width="40" height="30" as="geometry" />
        </mxCell>
      </root>
    </mxGraphModel>
  </diagram>
</mxfile>
